<?xml version="1.0" encoding="UTF-8" standalone="no"?>
<!DOCTYPE svg PUBLIC "-//W3C//DTD SVG 1.1//EN" "http://www.w3.org/Graphics/SVG/1.1/DTD/svg11.dtd">
<svg width="100%" height="100%" viewBox="0 0 1005 288" version="1.1" xmlns="http://www.w3.org/2000/svg" xmlns:xlink="http://www.w3.org/1999/xlink" xml:space="preserve" xmlns:serif="http://www.serif.com/" style="fill-rule:evenodd;clip-rule:evenodd;stroke-linejoin:round;stroke-miterlimit:2;">
    <g transform="matrix(4.16667,0,0,4.16667,0,0)">
        <rect x="0" y="0.969" width="240.945" height="68.031" style="fill:white;fill-rule:nonzero;"/>
        <path d="M56.693,34.985C56.693,47.509 46.54,57.661 34.016,57.661C21.491,57.661 11.338,47.509 11.338,34.985C11.338,22.461 21.491,12.308 34.016,12.308C46.54,12.308 56.693,22.461 56.693,34.985Z" style="fill:rgb(13,104,179);fill-rule:nonzero;"/>
        <path d="M21.82,37.931C22.371,37.931 22.865,37.804 23.288,37.551C23.709,37.3 24.046,36.948 24.29,36.505C24.532,36.061 24.655,35.546 24.655,34.972C24.655,34.392 24.532,33.875 24.29,33.434C24.047,32.995 23.71,32.647 23.288,32.399C22.866,32.15 22.372,32.024 21.82,32.024L20.607,32.024L20.607,37.931L21.82,37.931ZM19.961,39.101C19.78,39.101 19.625,39.037 19.501,38.912C19.378,38.79 19.315,38.636 19.315,38.454L19.315,31.5C19.315,31.311 19.378,31.155 19.503,31.034C19.627,30.915 19.78,30.854 19.961,30.854L21.82,30.854C22.42,30.854 22.975,30.955 23.469,31.156C23.964,31.354 24.4,31.643 24.765,32.012C25.131,32.382 25.415,32.821 25.612,33.318C25.808,33.817 25.907,34.373 25.907,34.972C25.907,35.571 25.808,36.129 25.612,36.631C25.416,37.132 25.131,37.573 24.765,37.943C24.4,38.312 23.964,38.6 23.469,38.799C22.975,38.999 22.421,39.101 21.82,39.101L19.961,39.101Z" style="fill:white;fill-rule:nonzero;"/>
        <path d="M38.934,36.226L37.63,32.986L36.304,36.226L38.934,36.226ZM40.607,39.101C40.484,39.101 40.365,39.066 40.255,38.995C40.143,38.926 40.06,38.827 40.01,38.701L39.459,37.333L35.931,37.333L35.371,38.702C35.312,38.836 35.226,38.936 35.113,39.003C35.005,39.068 34.89,39.101 34.774,39.101C34.545,39.101 34.359,38.997 34.237,38.801C34.114,38.604 34.101,38.393 34.199,38.172L37.084,31.283C37.204,31.002 37.414,30.855 37.691,30.855C37.984,30.855 38.194,31.004 38.299,31.287L41.194,38.195C41.283,38.424 41.268,38.632 41.149,38.818C41.027,39.006 40.845,39.101 40.607,39.101Z" style="fill:white;fill-rule:nonzero;"/>
        <path d="M31.176,36.226L29.872,32.986L28.546,36.226L31.176,36.226ZM32.77,39.101C32.647,39.101 32.529,39.066 32.418,38.995C32.305,38.926 32.223,38.826 32.173,38.701L31.622,37.333L28.093,37.333L27.534,38.702C27.475,38.836 27.389,38.936 27.277,39.003C27.167,39.068 27.053,39.101 26.937,39.101C26.708,39.101 26.522,38.997 26.4,38.801C26.277,38.604 26.264,38.393 26.362,38.172L29.247,31.283C29.366,31.002 29.576,30.855 29.853,30.855C30.146,30.855 30.357,31.004 30.462,31.287L33.356,38.195C33.446,38.424 33.43,38.632 33.312,38.818C33.19,39.006 33.008,39.101 32.77,39.101Z" style="fill:white;fill-rule:nonzero;"/>
        <path d="M44.861,37.931C45.412,37.931 45.905,37.804 46.328,37.551C46.75,37.3 47.087,36.947 47.33,36.505C47.573,36.061 47.696,35.546 47.696,34.972C47.696,34.392 47.573,33.874 47.33,33.434C47.088,32.996 46.751,32.647 46.329,32.399C45.906,32.15 45.413,32.024 44.861,32.024L43.648,32.024L43.648,37.931L44.861,37.931ZM43.001,39.101C42.82,39.101 42.665,39.037 42.542,38.912C42.418,38.79 42.356,38.636 42.356,38.454L42.356,31.5C42.356,31.311 42.419,31.155 42.544,31.034C42.667,30.915 42.821,30.854 43.001,30.854L44.861,30.854C45.461,30.854 46.015,30.955 46.51,31.156C47.004,31.354 47.44,31.643 47.806,32.012C48.171,32.382 48.456,32.821 48.652,33.318C48.848,33.817 48.947,34.374 48.947,34.972C48.947,35.571 48.848,36.129 48.653,36.631C48.456,37.132 48.171,37.573 47.806,37.943C47.44,38.312 47.004,38.6 46.51,38.799C46.016,38.999 45.461,39.101 44.861,39.101L43.001,39.101Z" style="fill:white;fill-rule:nonzero;"/>
        <path d="M65.726,31.951L66.395,31.951C67.078,31.951 67.591,31.746 67.933,31.336C68.275,30.926 68.446,30.349 68.446,29.606C68.446,28.863 68.275,28.295 67.933,27.902C67.591,27.51 67.078,27.314 66.395,27.314L65.726,27.314L65.726,31.951ZM64.986,32.558L64.986,26.707L66.448,26.707C67.352,26.707 68.038,26.957 68.508,27.456C68.978,27.956 69.213,28.673 69.213,29.606C69.213,30.07 69.154,30.484 69.034,30.85C68.915,31.216 68.74,31.525 68.508,31.778C68.277,32.03 67.991,32.223 67.653,32.357C67.314,32.491 66.924,32.558 66.484,32.558L64.986,32.558Z" style="fill-rule:nonzero;"/>
        <path d="M70.97,30.043L73.288,30.043C73.288,29.603 73.195,29.268 73.008,29.039C72.821,28.811 72.557,28.696 72.218,28.696C72.064,28.696 71.916,28.726 71.777,28.785C71.637,28.845 71.511,28.932 71.398,29.049C71.284,29.164 71.191,29.305 71.116,29.472C71.042,29.638 70.993,29.829 70.97,30.043ZM72.334,32.665C72.043,32.665 71.771,32.613 71.518,32.509C71.266,32.405 71.045,32.256 70.859,32.063C70.671,31.87 70.524,31.634 70.416,31.354C70.31,31.074 70.256,30.756 70.256,30.4C70.256,30.043 70.311,29.723 70.421,29.441C70.531,29.158 70.677,28.919 70.859,28.723C71.039,28.527 71.246,28.377 71.478,28.272C71.71,28.169 71.95,28.116 72.2,28.116C72.474,28.116 72.719,28.164 72.936,28.259C73.154,28.354 73.334,28.491 73.481,28.669C73.626,28.848 73.738,29.062 73.815,29.311C73.892,29.561 73.931,29.841 73.931,30.15C73.931,30.227 73.929,30.303 73.926,30.377C73.923,30.451 73.916,30.515 73.904,30.569L70.979,30.569C71.008,31.033 71.153,31.4 71.411,31.671C71.67,31.941 72.007,32.076 72.423,32.076C72.631,32.076 72.823,32.045 72.998,31.983C73.174,31.92 73.342,31.839 73.502,31.738L73.761,32.219C73.571,32.338 73.36,32.442 73.128,32.531C72.896,32.62 72.631,32.665 72.334,32.665Z" style="fill-rule:nonzero;"/>
        <path d="M76.447,32.665C75.983,32.665 75.645,32.522 75.434,32.237C75.223,31.951 75.117,31.529 75.117,30.97L75.117,28.223L75.858,28.223L75.858,30.872C75.858,31.282 75.921,31.578 76.049,31.76C76.177,31.941 76.384,32.031 76.669,32.031C76.895,32.031 77.094,31.974 77.267,31.858C77.439,31.742 77.629,31.556 77.837,31.301L77.837,28.223L78.569,28.223L78.569,32.558L77.962,32.558L77.9,31.88L77.873,31.88C77.671,32.118 77.458,32.308 77.236,32.451C77.013,32.593 76.749,32.665 76.447,32.665Z" style="fill-rule:nonzero;"/>
        <path d="M81.573,32.665C81.342,32.665 81.147,32.629 80.989,32.558C80.832,32.487 80.704,32.388 80.606,32.263C80.508,32.139 80.438,31.987 80.397,31.809C80.355,31.63 80.334,31.434 80.334,31.22L80.334,28.821L79.692,28.821L79.692,28.268L80.369,28.223L80.459,27.01L81.074,27.01L81.074,28.223L82.242,28.223L82.242,28.821L81.074,28.821L81.074,31.229C81.074,31.496 81.123,31.703 81.221,31.849C81.32,31.994 81.493,32.067 81.743,32.067C81.821,32.067 81.904,32.055 81.992,32.031C82.082,32.008 82.162,31.981 82.234,31.951L82.376,32.504C82.257,32.546 82.128,32.583 81.988,32.616C81.849,32.649 81.71,32.665 81.573,32.665Z" style="fill-rule:nonzero;"/>
        <path d="M84.447,32.665C84.137,32.665 83.843,32.608 83.564,32.495C83.283,32.383 83.04,32.24 82.832,32.067L83.197,31.577C83.388,31.732 83.582,31.856 83.781,31.951C83.981,32.047 84.211,32.094 84.473,32.094C84.758,32.094 84.973,32.029 85.115,31.898C85.258,31.767 85.329,31.607 85.329,31.416C85.329,31.303 85.299,31.205 85.24,31.122C85.181,31.039 85.105,30.966 85.013,30.904C84.92,30.841 84.815,30.786 84.696,30.739C84.577,30.691 84.458,30.643 84.339,30.596C84.185,30.542 84.03,30.481 83.875,30.413C83.721,30.344 83.582,30.261 83.461,30.163C83.339,30.065 83.239,29.95 83.162,29.82C83.084,29.689 83.046,29.531 83.046,29.347C83.046,29.175 83.08,29.012 83.149,28.861C83.217,28.709 83.315,28.579 83.443,28.468C83.571,28.359 83.727,28.272 83.911,28.21C84.095,28.148 84.304,28.116 84.535,28.116C84.809,28.116 85.06,28.164 85.289,28.259C85.518,28.354 85.716,28.47 85.882,28.607L85.534,29.071C85.386,28.958 85.231,28.865 85.071,28.794C84.91,28.723 84.735,28.687 84.544,28.687C84.271,28.687 84.071,28.75 83.943,28.874C83.815,28.999 83.75,29.145 83.75,29.311C83.75,29.413 83.778,29.5 83.831,29.574C83.884,29.649 83.955,29.714 84.045,29.771C84.134,29.827 84.237,29.878 84.353,29.923C84.469,29.967 84.589,30.013 84.714,30.061C84.868,30.12 85.025,30.182 85.182,30.248C85.339,30.313 85.481,30.395 85.606,30.493C85.731,30.591 85.833,30.712 85.913,30.854C85.993,30.997 86.033,31.17 86.033,31.372C86.033,31.55 85.999,31.717 85.931,31.871C85.863,32.026 85.762,32.162 85.628,32.281C85.494,32.401 85.327,32.494 85.128,32.562C84.929,32.631 84.701,32.665 84.447,32.665Z" style="fill-rule:nonzero;"/>
        <path d="M88.941,32.665C88.655,32.665 88.388,32.614 88.138,32.513C87.889,32.412 87.673,32.265 87.491,32.072C87.311,31.879 87.167,31.641 87.064,31.358C86.959,31.076 86.907,30.756 86.907,30.4C86.907,30.037 86.964,29.714 87.077,29.432C87.19,29.15 87.341,28.91 87.531,28.714C87.722,28.518 87.944,28.369 88.197,28.268C88.448,28.167 88.715,28.116 88.994,28.116C89.28,28.116 89.524,28.167 89.726,28.268C89.928,28.369 90.107,28.488 90.261,28.625L89.886,29.106C89.762,28.993 89.629,28.901 89.489,28.83C89.35,28.759 89.194,28.723 89.022,28.723C88.825,28.723 88.644,28.763 88.477,28.843C88.311,28.924 88.168,29.038 88.049,29.187C87.93,29.335 87.836,29.512 87.768,29.717C87.699,29.923 87.665,30.15 87.665,30.4C87.665,30.649 87.698,30.875 87.764,31.077C87.829,31.28 87.92,31.453 88.035,31.599C88.152,31.745 88.293,31.858 88.459,31.938C88.626,32.018 88.807,32.058 89.003,32.058C89.205,32.058 89.392,32.015 89.561,31.929C89.731,31.843 89.883,31.74 90.02,31.621L90.341,32.112C90.145,32.284 89.928,32.42 89.691,32.518C89.452,32.616 89.202,32.665 88.941,32.665Z" style="fill-rule:nonzero;"/>
        <path d="M91.474,32.558L91.474,26.208L92.205,26.208L92.205,27.938L92.178,28.83C92.386,28.634 92.604,28.466 92.829,28.326C93.055,28.186 93.32,28.116 93.623,28.116C94.081,28.116 94.415,28.259 94.626,28.545C94.837,28.83 94.944,29.252 94.944,29.811L94.944,32.558L94.212,32.558L94.212,29.909C94.212,29.499 94.147,29.203 94.016,29.022C93.885,28.84 93.677,28.75 93.391,28.75C93.165,28.75 92.966,28.806 92.794,28.919C92.621,29.032 92.425,29.198 92.205,29.419L92.205,32.558L91.474,32.558Z" style="fill-rule:nonzero;"/>
        <path d="M96.897,30.043L99.215,30.043C99.215,29.603 99.121,29.268 98.935,29.039C98.747,28.811 98.484,28.696 98.145,28.696C97.99,28.696 97.843,28.726 97.703,28.785C97.564,28.845 97.438,28.932 97.324,29.049C97.211,29.164 97.117,29.305 97.043,29.472C96.969,29.638 96.92,29.829 96.897,30.043ZM98.261,32.665C97.97,32.665 97.697,32.613 97.445,32.509C97.193,32.405 96.972,32.256 96.785,32.063C96.598,31.87 96.45,31.634 96.343,31.354C96.237,31.074 96.183,30.756 96.183,30.4C96.183,30.043 96.238,29.723 96.348,29.441C96.458,29.158 96.604,28.919 96.785,28.723C96.966,28.527 97.173,28.377 97.405,28.272C97.637,28.169 97.877,28.116 98.127,28.116C98.401,28.116 98.646,28.164 98.863,28.259C99.08,28.354 99.261,28.491 99.407,28.669C99.553,28.848 99.664,29.062 99.741,29.311C99.819,29.561 99.858,29.841 99.858,30.15C99.858,30.227 99.856,30.303 99.853,30.377C99.85,30.451 99.843,30.515 99.83,30.569L96.905,30.569C96.935,31.033 97.079,31.4 97.338,31.671C97.597,31.941 97.934,32.076 98.35,32.076C98.558,32.076 98.75,32.045 98.925,31.983C99.101,31.92 99.269,31.839 99.429,31.738L99.688,32.219C99.497,32.338 99.286,32.442 99.055,32.531C98.822,32.62 98.558,32.665 98.261,32.665Z" style="fill-rule:nonzero;"/>
        <path d="M101.106,32.558L101.106,28.223L101.713,28.223L101.775,29.008L101.801,29.008C101.95,28.735 102.131,28.518 102.341,28.357C102.552,28.197 102.783,28.116 103.033,28.116C103.205,28.116 103.359,28.146 103.496,28.205L103.353,28.848C103.282,28.824 103.216,28.806 103.157,28.794C103.097,28.782 103.023,28.776 102.934,28.776C102.75,28.776 102.558,28.851 102.359,28.999C102.16,29.148 101.986,29.406 101.838,29.775L101.838,32.558L101.106,32.558Z" style="fill-rule:nonzero;"/>
        <path d="M107.421,29.285L107.144,30.177L108.901,30.177L108.625,29.285C108.517,28.958 108.417,28.632 108.321,28.308C108.226,27.984 108.131,27.653 108.036,27.314L108.001,27.314C107.911,27.653 107.819,27.984 107.723,28.308C107.629,28.632 107.528,28.958 107.421,29.285ZM105.636,32.558L107.617,26.707L108.455,26.707L110.435,32.558L109.641,32.558L109.089,30.774L106.957,30.774L106.395,32.558L105.636,32.558Z" style="fill-rule:nonzero;"/>
        <path d="M111.371,32.558L111.371,26.208L112.093,26.208L112.093,30.507L112.12,30.507L113.966,28.223L114.778,28.223L113.324,29.963L114.974,32.558L114.172,32.558L112.905,30.471L112.093,31.416L112.093,32.558L111.371,32.558Z" style="fill-rule:nonzero;"/>
        <path d="M117.089,32.076C117.297,32.076 117.493,32.027 117.677,31.929C117.861,31.831 118.057,31.687 118.265,31.496L118.265,30.293C117.903,30.34 117.598,30.397 117.351,30.462C117.105,30.528 116.906,30.605 116.754,30.694C116.602,30.783 116.492,30.885 116.424,31.002C116.355,31.117 116.322,31.244 116.322,31.381C116.322,31.63 116.396,31.809 116.545,31.916C116.693,32.023 116.875,32.076 117.089,32.076ZM116.875,32.665C116.511,32.665 116.21,32.558 115.969,32.344C115.728,32.13 115.608,31.826 115.608,31.434C115.608,30.958 115.819,30.594 116.241,30.342C116.664,30.089 117.339,29.912 118.265,29.811C118.265,29.674 118.253,29.54 118.225,29.409C118.199,29.279 118.153,29.163 118.088,29.062C118.022,28.961 117.931,28.879 117.815,28.817C117.7,28.754 117.552,28.723 117.374,28.723C117.124,28.723 116.889,28.77 116.67,28.865C116.449,28.961 116.253,29.068 116.081,29.187L115.796,28.678C115.998,28.548 116.244,28.421 116.536,28.299C116.827,28.177 117.148,28.116 117.499,28.116C118.028,28.116 118.412,28.279 118.649,28.602C118.887,28.927 119.006,29.359 119.006,29.9L119.006,32.558L118.399,32.558L118.338,32.041L118.31,32.041C118.102,32.213 117.88,32.36 117.641,32.482C117.404,32.604 117.148,32.665 116.875,32.665Z" style="fill-rule:nonzero;"/>
        <path d="M122.234,32.05C122.436,32.05 122.626,32 122.805,31.902C122.983,31.804 123.161,31.654 123.34,31.452L123.34,29.187C123.155,29.02 122.979,28.903 122.809,28.834C122.64,28.766 122.466,28.732 122.287,28.732C122.114,28.732 121.953,28.772 121.801,28.852C121.65,28.932 121.518,29.046 121.405,29.191C121.292,29.337 121.203,29.51 121.137,29.713C121.072,29.915 121.04,30.141 121.04,30.39C121.04,30.914 121.143,31.321 121.351,31.613C121.559,31.904 121.854,32.05 122.234,32.05ZM122.073,32.665C121.527,32.665 121.091,32.468 120.767,32.076C120.443,31.684 120.281,31.125 120.281,30.4C120.281,30.049 120.333,29.732 120.437,29.449C120.542,29.167 120.679,28.928 120.852,28.732C121.024,28.535 121.223,28.384 121.45,28.277C121.675,28.17 121.913,28.116 122.162,28.116C122.412,28.116 122.629,28.161 122.814,28.25C122.998,28.339 123.185,28.461 123.375,28.616L123.34,27.876L123.34,26.208L124.08,26.208L124.08,32.558L123.474,32.558L123.411,32.05L123.384,32.05C123.212,32.216 123.014,32.36 122.791,32.482C122.569,32.604 122.329,32.665 122.073,32.665Z" style="fill-rule:nonzero;"/>
        <path d="M126.069,30.043L128.386,30.043C128.386,29.603 128.293,29.268 128.106,29.039C127.919,28.811 127.655,28.696 127.317,28.696C127.162,28.696 127.015,28.726 126.875,28.785C126.736,28.845 126.61,28.932 126.496,29.049C126.383,29.164 126.289,29.305 126.215,29.472C126.141,29.638 126.092,29.829 126.069,30.043ZM127.433,32.665C127.142,32.665 126.869,32.613 126.616,32.509C126.364,32.405 126.144,32.256 125.957,32.063C125.77,31.87 125.622,31.634 125.515,31.354C125.408,31.074 125.355,30.756 125.355,30.4C125.355,30.043 125.409,29.723 125.52,29.441C125.63,29.158 125.776,28.919 125.957,28.723C126.138,28.527 126.345,28.377 126.576,28.272C126.809,28.169 127.049,28.116 127.299,28.116C127.572,28.116 127.818,28.164 128.034,28.259C128.252,28.354 128.433,28.491 128.578,28.669C128.725,28.848 128.836,29.062 128.912,29.311C128.99,29.561 129.029,29.841 129.029,30.15C129.029,30.227 129.028,30.303 129.024,30.377C129.022,30.451 129.015,30.515 129.002,30.569L126.077,30.569C126.107,31.033 126.251,31.4 126.51,31.671C126.769,31.941 127.106,32.076 127.522,32.076C127.73,32.076 127.922,32.045 128.097,31.983C128.272,31.92 128.44,31.839 128.601,31.738L128.86,32.219C128.669,32.338 128.457,32.442 128.227,32.531C127.994,32.62 127.73,32.665 127.433,32.665Z" style="fill-rule:nonzero;"/>
        <path d="M130.278,32.558L130.278,28.223L130.884,28.223L130.947,28.848L130.974,28.848C131.164,28.639 131.371,28.466 131.594,28.326C131.817,28.186 132.059,28.116 132.32,28.116C132.653,28.116 132.914,28.189 133.101,28.335C133.288,28.481 133.427,28.684 133.516,28.946C133.741,28.696 133.969,28.495 134.198,28.344C134.427,28.192 134.675,28.116 134.943,28.116C135.389,28.116 135.72,28.259 135.938,28.545C136.154,28.83 136.263,29.252 136.263,29.811L136.263,32.558L135.531,32.558L135.531,29.909C135.531,29.499 135.466,29.203 135.335,29.022C135.204,28.84 135.002,28.75 134.729,28.75C134.402,28.75 134.039,28.972 133.641,29.419L133.641,32.558L132.909,32.558L132.909,29.909C132.909,29.499 132.844,29.203 132.713,29.022C132.582,28.84 132.377,28.75 132.098,28.75C131.771,28.75 131.408,28.972 131.009,29.419L131.009,32.558L130.278,32.558Z" style="fill-rule:nonzero;"/>
        <path d="M137.806,32.558L137.806,28.223L138.537,28.223L138.537,32.558L137.806,32.558ZM138.18,27.331C138.037,27.331 137.917,27.287 137.82,27.197C137.721,27.109 137.672,26.996 137.672,26.859C137.672,26.716 137.721,26.602 137.82,26.515C137.917,26.429 138.037,26.386 138.18,26.386C138.323,26.386 138.444,26.429 138.541,26.515C138.64,26.602 138.689,26.716 138.689,26.859C138.689,26.996 138.64,27.109 138.541,27.197C138.444,27.287 138.323,27.331 138.18,27.331Z" style="fill-rule:nonzero;"/>
        <path d="M141.311,32.665C141.001,32.665 140.707,32.608 140.428,32.495C140.148,32.383 139.904,32.24 139.696,32.067L140.062,31.577C140.252,31.732 140.446,31.856 140.646,31.951C140.845,32.047 141.075,32.094 141.337,32.094C141.622,32.094 141.837,32.029 141.98,31.898C142.122,31.767 142.194,31.607 142.194,31.416C142.194,31.303 142.163,31.205 142.105,31.122C142.045,31.039 141.969,30.966 141.877,30.904C141.784,30.841 141.679,30.786 141.56,30.739C141.442,30.691 141.322,30.643 141.203,30.596C141.049,30.542 140.895,30.481 140.739,30.413C140.585,30.344 140.446,30.261 140.325,30.163C140.203,30.065 140.104,29.95 140.027,29.82C139.948,29.689 139.91,29.531 139.91,29.347C139.91,29.175 139.945,29.012 140.013,28.861C140.081,28.709 140.179,28.579 140.307,28.468C140.435,28.359 140.591,28.272 140.776,28.21C140.959,28.148 141.168,28.116 141.4,28.116C141.673,28.116 141.924,28.164 142.154,28.259C142.382,28.354 142.58,28.47 142.746,28.607L142.399,29.071C142.25,28.958 142.095,28.865 141.935,28.794C141.775,28.723 141.599,28.687 141.408,28.687C141.135,28.687 140.935,28.75 140.807,28.874C140.679,28.999 140.614,29.145 140.614,29.311C140.614,29.413 140.642,29.5 140.695,29.574C140.748,29.649 140.82,29.714 140.909,29.771C140.998,29.827 141.101,29.878 141.217,29.923C141.333,29.967 141.453,30.013 141.578,30.061C141.733,30.12 141.889,30.182 142.046,30.248C142.203,30.313 142.345,30.395 142.47,30.493C142.595,30.591 142.697,30.712 142.778,30.854C142.858,30.997 142.898,31.17 142.898,31.372C142.898,31.55 142.863,31.717 142.795,31.871C142.727,32.026 142.626,32.162 142.492,32.281C142.359,32.401 142.192,32.494 141.992,32.562C141.793,32.631 141.566,32.665 141.311,32.665Z" style="fill-rule:nonzero;"/>
        <path d="M145.805,32.665C145.52,32.665 145.252,32.614 145.002,32.513C144.753,32.412 144.537,32.265 144.356,32.072C144.175,31.879 144.031,31.641 143.928,31.358C143.823,31.076 143.772,30.756 143.772,30.4C143.772,30.037 143.828,29.714 143.942,29.432C144.054,29.15 144.205,28.91 144.396,28.714C144.586,28.518 144.808,28.369 145.061,28.268C145.313,28.167 145.579,28.116 145.859,28.116C146.144,28.116 146.388,28.167 146.59,28.268C146.792,28.369 146.971,28.488 147.125,28.625L146.75,29.106C146.626,28.993 146.493,28.901 146.354,28.83C146.214,28.759 146.058,28.723 145.886,28.723C145.69,28.723 145.508,28.763 145.341,28.843C145.175,28.924 145.032,29.038 144.913,29.187C144.794,29.335 144.7,29.512 144.632,29.717C144.564,29.923 144.529,30.15 144.529,30.4C144.529,30.649 144.563,30.875 144.628,31.077C144.694,31.28 144.784,31.453 144.9,31.599C145.016,31.745 145.157,31.858 145.323,31.938C145.49,32.018 145.671,32.058 145.867,32.058C146.07,32.058 146.256,32.015 146.425,31.929C146.595,31.843 146.747,31.74 146.884,31.621L147.205,32.112C147.009,32.284 146.792,32.42 146.555,32.518C146.317,32.616 146.067,32.665 145.805,32.665Z" style="fill-rule:nonzero;"/>
        <path d="M148.338,32.558L148.338,26.208L149.07,26.208L149.07,27.938L149.042,28.83C149.25,28.634 149.468,28.466 149.694,28.326C149.919,28.186 150.184,28.116 150.487,28.116C150.945,28.116 151.279,28.259 151.49,28.545C151.701,28.83 151.808,29.252 151.808,29.811L151.808,32.558L151.076,32.558L151.076,29.909C151.076,29.499 151.011,29.203 150.88,29.022C150.749,28.84 150.541,28.75 150.255,28.75C150.029,28.75 149.83,28.806 149.658,28.919C149.486,29.032 149.289,29.198 149.07,29.419L149.07,32.558L148.338,32.558Z" style="fill-rule:nonzero;"/>
        <path d="M153.761,30.043L156.079,30.043C156.079,29.603 155.986,29.268 155.799,29.039C155.612,28.811 155.348,28.696 155.009,28.696C154.855,28.696 154.707,28.726 154.568,28.785C154.428,28.845 154.302,28.932 154.189,29.049C154.075,29.164 153.982,29.305 153.907,29.472C153.833,29.638 153.784,29.829 153.761,30.043ZM155.125,32.665C154.834,32.665 154.562,32.613 154.309,32.509C154.057,32.405 153.836,32.256 153.65,32.063C153.462,31.87 153.315,31.634 153.207,31.354C153.101,31.074 153.047,30.756 153.047,30.4C153.047,30.043 153.102,29.723 153.212,29.441C153.322,29.158 153.468,28.919 153.65,28.723C153.83,28.527 154.037,28.377 154.269,28.272C154.501,28.169 154.741,28.116 154.991,28.116C155.265,28.116 155.51,28.164 155.727,28.259C155.945,28.354 156.125,28.491 156.272,28.669C156.417,28.848 156.529,29.062 156.606,29.311C156.683,29.561 156.722,29.841 156.722,30.15C156.722,30.227 156.72,30.303 156.717,30.377C156.714,30.451 156.707,30.515 156.695,30.569L153.77,30.569C153.799,31.033 153.944,31.4 154.202,31.671C154.461,31.941 154.798,32.076 155.214,32.076C155.422,32.076 155.614,32.045 155.789,31.983C155.965,31.92 156.133,31.839 156.293,31.738L156.552,32.219C156.362,32.338 156.151,32.442 155.919,32.531C155.687,32.62 155.422,32.665 155.125,32.665Z" style="fill-rule:nonzero;"/>
        <path d="M157.97,32.558L157.97,28.223L158.576,28.223L158.639,29.008L158.665,29.008C158.814,28.735 158.994,28.518 159.205,28.357C159.416,28.197 159.647,28.116 159.897,28.116C160.069,28.116 160.223,28.146 160.36,28.205L160.217,28.848C160.146,28.824 160.08,28.806 160.021,28.794C159.961,28.782 159.887,28.776 159.798,28.776C159.613,28.776 159.422,28.851 159.223,28.999C159.024,29.148 158.85,29.406 158.701,29.775L158.701,32.558L157.97,32.558Z" style="fill-rule:nonzero;"/>
        <path d="M164.284,29.285L164.008,30.177L165.765,30.177L165.488,29.285C165.381,28.958 165.28,28.632 165.185,28.308C165.09,27.984 164.994,27.653 164.9,27.314L164.864,27.314C164.775,27.653 164.683,27.984 164.587,28.308C164.492,28.632 164.392,28.958 164.284,29.285ZM162.5,32.558L164.481,26.707L165.319,26.707L167.299,32.558L166.505,32.558L165.952,30.774L163.82,30.774L163.259,32.558L162.5,32.558Z" style="fill-rule:nonzero;"/>
        <path d="M169.493,32.665C169.029,32.665 168.692,32.522 168.481,32.237C168.27,31.951 168.164,31.529 168.164,30.97L168.164,28.223L168.904,28.223L168.904,30.872C168.904,31.282 168.968,31.578 169.096,31.76C169.224,31.941 169.431,32.031 169.716,32.031C169.942,32.031 170.141,31.974 170.314,31.858C170.486,31.742 170.676,31.556 170.884,31.301L170.884,28.223L171.615,28.223L171.615,32.558L171.009,32.558L170.946,31.88L170.92,31.88C170.718,32.118 170.505,32.308 170.282,32.451C170.06,32.593 169.796,32.665 169.493,32.665Z" style="fill-rule:nonzero;"/>
        <path d="M174.345,32.665C174.035,32.665 173.741,32.608 173.462,32.495C173.182,32.383 172.939,32.24 172.731,32.067L173.096,31.577C173.286,31.732 173.481,31.856 173.68,31.951C173.879,32.047 174.11,32.094 174.371,32.094C174.656,32.094 174.871,32.029 175.014,31.898C175.156,31.767 175.228,31.607 175.228,31.416C175.228,31.303 175.197,31.205 175.139,31.122C175.079,31.039 175.003,30.966 174.911,30.904C174.819,30.841 174.713,30.786 174.594,30.739C174.476,30.691 174.357,30.643 174.237,30.596C174.083,30.542 173.929,30.481 173.774,30.413C173.619,30.344 173.481,30.261 173.36,30.163C173.237,30.065 173.138,29.95 173.061,29.82C172.983,29.689 172.945,29.531 172.945,29.347C172.945,29.175 172.979,29.012 173.047,28.861C173.115,28.709 173.213,28.579 173.341,28.468C173.469,28.359 173.625,28.272 173.81,28.21C173.993,28.148 174.202,28.116 174.434,28.116C174.707,28.116 174.958,28.164 175.188,28.259C175.416,28.354 175.614,28.47 175.78,28.607L175.433,29.071C175.284,28.958 175.129,28.865 174.969,28.794C174.809,28.723 174.633,28.687 174.443,28.687C174.169,28.687 173.969,28.75 173.841,28.874C173.713,28.999 173.649,29.145 173.649,29.311C173.649,29.413 173.676,29.5 173.73,29.574C173.782,29.649 173.854,29.714 173.944,29.771C174.032,29.827 174.135,29.878 174.251,29.923C174.367,29.967 174.487,30.013 174.612,30.061C174.767,30.12 174.923,30.182 175.08,30.248C175.237,30.313 175.379,30.395 175.504,30.493C175.629,30.591 175.732,30.712 175.812,30.854C175.892,30.997 175.932,31.17 175.932,31.372C175.932,31.55 175.898,31.717 175.829,31.871C175.761,32.026 175.66,32.162 175.527,32.281C175.393,32.401 175.226,32.494 175.027,32.562C174.827,32.631 174.6,32.665 174.345,32.665Z" style="fill-rule:nonzero;"/>
        <path d="M178.491,32.665C178.26,32.665 178.065,32.629 177.907,32.558C177.75,32.487 177.622,32.388 177.524,32.263C177.426,32.139 177.356,31.987 177.315,31.809C177.273,31.63 177.252,31.434 177.252,31.22L177.252,28.821L176.61,28.821L176.61,28.268L177.287,28.223L177.377,27.01L177.992,27.01L177.992,28.223L179.16,28.223L179.16,28.821L177.992,28.821L177.992,31.229C177.992,31.496 178.041,31.703 178.139,31.849C178.237,31.994 178.411,32.067 178.661,32.067C178.738,32.067 178.821,32.055 178.91,32.031C179,32.008 179.08,31.981 179.152,31.951L179.294,32.504C179.175,32.546 179.046,32.583 178.906,32.616C178.767,32.649 178.628,32.665 178.491,32.665Z" style="fill-rule:nonzero;"/>
        <path d="M181.48,32.076C181.688,32.076 181.884,32.027 182.069,31.929C182.252,31.831 182.448,31.687 182.656,31.496L182.656,30.293C182.294,30.34 181.989,30.397 181.742,30.462C181.496,30.528 181.297,30.605 181.145,30.694C180.993,30.783 180.883,30.885 180.816,31.002C180.746,31.117 180.713,31.244 180.713,31.381C180.713,31.63 180.787,31.809 180.936,31.916C181.084,32.023 181.266,32.076 181.48,32.076ZM181.266,32.665C180.903,32.665 180.601,32.558 180.361,32.344C180.119,32.13 179.999,31.826 179.999,31.434C179.999,30.958 180.21,30.594 180.632,30.342C181.055,30.089 181.73,29.912 182.656,29.811C182.656,29.674 182.644,29.54 182.616,29.409C182.59,29.279 182.544,29.163 182.479,29.062C182.413,28.961 182.322,28.879 182.206,28.817C182.091,28.754 181.944,28.723 181.765,28.723C181.515,28.723 181.28,28.77 181.061,28.865C180.84,28.961 180.644,29.068 180.472,29.187L180.187,28.678C180.389,28.548 180.635,28.421 180.927,28.299C181.218,28.177 181.539,28.116 181.89,28.116C182.419,28.116 182.803,28.279 183.04,28.602C183.279,28.927 183.397,29.359 183.397,29.9L183.397,32.558L182.79,32.558L182.729,32.041L182.701,32.041C182.493,32.213 182.271,32.36 182.032,32.482C181.795,32.604 181.539,32.665 181.266,32.665Z" style="fill-rule:nonzero;"/>
        <path d="M186.206,32.665C185.742,32.665 185.404,32.522 185.194,32.237C184.983,31.951 184.877,31.529 184.877,30.97L184.877,28.223L185.617,28.223L185.617,30.872C185.617,31.282 185.681,31.578 185.809,31.76C185.937,31.941 186.144,32.031 186.429,32.031C186.654,32.031 186.854,31.974 187.027,31.858C187.198,31.742 187.389,31.556 187.597,31.301L187.597,28.223L188.328,28.223L188.328,32.558L187.722,32.558L187.659,31.88L187.633,31.88C187.431,32.118 187.218,32.308 186.995,32.451C186.773,32.593 186.509,32.665 186.206,32.665Z" style="fill-rule:nonzero;"/>
        <path d="M191.103,32.665C190.793,32.665 190.499,32.608 190.22,32.495C189.94,32.383 189.696,32.24 189.488,32.067L189.854,31.577C190.044,31.732 190.238,31.856 190.438,31.951C190.637,32.047 190.867,32.094 191.129,32.094C191.414,32.094 191.629,32.029 191.772,31.898C191.914,31.767 191.986,31.607 191.986,31.416C191.986,31.303 191.955,31.205 191.897,31.122C191.837,31.039 191.761,30.966 191.669,30.904C191.576,30.841 191.471,30.786 191.352,30.739C191.234,30.691 191.114,30.643 190.995,30.596C190.841,30.542 190.687,30.481 190.531,30.413C190.377,30.344 190.238,30.261 190.117,30.163C189.995,30.065 189.896,29.95 189.819,29.82C189.74,29.689 189.702,29.531 189.702,29.347C189.702,29.175 189.737,29.012 189.805,28.861C189.873,28.709 189.971,28.579 190.099,28.468C190.227,28.359 190.383,28.272 190.568,28.21C190.751,28.148 190.96,28.116 191.192,28.116C191.465,28.116 191.716,28.164 191.945,28.259C192.174,28.354 192.372,28.47 192.538,28.607L192.191,29.071C192.042,28.958 191.887,28.865 191.727,28.794C191.567,28.723 191.391,28.687 191.2,28.687C190.927,28.687 190.727,28.75 190.599,28.874C190.471,28.999 190.406,29.145 190.406,29.311C190.406,29.413 190.434,29.5 190.487,29.574C190.54,29.649 190.612,29.714 190.701,29.771C190.79,29.827 190.893,29.878 191.009,29.923C191.125,29.967 191.245,30.013 191.37,30.061C191.525,30.12 191.681,30.182 191.838,30.248C191.995,30.313 192.137,30.395 192.262,30.493C192.387,30.591 192.489,30.712 192.57,30.854C192.65,30.997 192.69,31.17 192.69,31.372C192.69,31.55 192.655,31.717 192.587,31.871C192.519,32.026 192.418,32.162 192.284,32.281C192.151,32.401 191.984,32.494 191.784,32.562C191.585,32.631 191.358,32.665 191.103,32.665Z" style="fill-rule:nonzero;"/>
        <path d="M195.597,32.665C195.312,32.665 195.044,32.614 194.794,32.513C194.545,32.412 194.329,32.265 194.148,32.072C193.967,31.879 193.823,31.641 193.72,31.358C193.615,31.076 193.564,30.756 193.564,30.4C193.564,30.037 193.62,29.714 193.734,29.432C193.846,29.15 193.997,28.91 194.188,28.714C194.378,28.518 194.6,28.369 194.853,28.268C195.105,28.167 195.371,28.116 195.651,28.116C195.936,28.116 196.18,28.167 196.382,28.268C196.584,28.369 196.763,28.488 196.917,28.625L196.542,29.106C196.418,28.993 196.285,28.901 196.146,28.83C196.006,28.759 195.85,28.723 195.678,28.723C195.482,28.723 195.3,28.763 195.133,28.843C194.967,28.924 194.824,29.038 194.705,29.187C194.586,29.335 194.492,29.512 194.424,29.717C194.356,29.923 194.321,30.15 194.321,30.4C194.321,30.649 194.355,30.875 194.42,31.077C194.486,31.28 194.576,31.453 194.692,31.599C194.808,31.745 194.949,31.858 195.115,31.938C195.282,32.018 195.463,32.058 195.659,32.058C195.862,32.058 196.048,32.015 196.217,31.929C196.387,31.843 196.539,31.74 196.676,31.621L196.997,32.112C196.801,32.284 196.584,32.42 196.347,32.518C196.109,32.616 195.859,32.665 195.597,32.665Z" style="fill-rule:nonzero;"/>
        <path d="M198.13,32.558L198.13,26.208L198.862,26.208L198.862,27.938L198.834,28.83C199.042,28.634 199.26,28.466 199.486,28.326C199.711,28.186 199.976,28.116 200.279,28.116C200.737,28.116 201.071,28.259 201.282,28.545C201.493,28.83 201.6,29.252 201.6,29.811L201.6,32.558L200.868,32.558L200.868,29.909C200.868,29.499 200.803,29.203 200.672,29.022C200.541,28.84 200.333,28.75 200.047,28.75C199.821,28.75 199.622,28.806 199.45,28.919C199.278,29.032 199.081,29.198 198.862,29.419L198.862,32.558L198.13,32.558Z" style="fill-rule:nonzero;"/>
        <path d="M204.801,32.05C205.003,32.05 205.194,32 205.372,31.902C205.55,31.804 205.729,31.654 205.907,31.452L205.907,29.187C205.723,29.02 205.546,28.903 205.376,28.834C205.207,28.766 205.033,28.732 204.855,28.732C204.682,28.732 204.521,28.772 204.368,28.852C204.217,28.932 204.085,29.046 203.972,29.191C203.859,29.337 203.77,29.51 203.704,29.713C203.639,29.915 203.607,30.141 203.607,30.39C203.607,30.914 203.71,31.321 203.918,31.613C204.126,31.904 204.421,32.05 204.801,32.05ZM204.641,32.665C204.094,32.665 203.658,32.468 203.334,32.076C203.01,31.684 202.848,31.125 202.848,30.4C202.848,30.049 202.9,29.732 203.004,29.449C203.109,29.167 203.246,28.928 203.419,28.732C203.591,28.535 203.79,28.384 204.017,28.277C204.242,28.17 204.481,28.116 204.73,28.116C204.98,28.116 205.196,28.161 205.381,28.25C205.566,28.339 205.752,28.461 205.943,28.616L205.907,27.876L205.907,26.208L206.648,26.208L206.648,32.558L206.041,32.558L205.979,32.05L205.951,32.05C205.779,32.216 205.581,32.36 205.359,32.482C205.136,32.604 204.897,32.665 204.641,32.665Z" style="fill-rule:nonzero;"/>
        <path d="M208.288,32.558L208.288,28.223L209.02,28.223L209.02,32.558L208.288,32.558ZM208.662,27.331C208.52,27.331 208.4,27.287 208.302,27.197C208.203,27.109 208.154,26.996 208.154,26.859C208.154,26.716 208.203,26.602 208.302,26.515C208.4,26.429 208.52,26.386 208.662,26.386C208.806,26.386 208.926,26.429 209.024,26.515C209.122,26.602 209.171,26.716 209.171,26.859C209.171,26.996 209.122,27.109 209.024,27.197C208.926,27.287 208.806,27.331 208.662,27.331Z" style="fill-rule:nonzero;"/>
        <path d="M211.053,30.043L213.371,30.043C213.371,29.603 213.278,29.268 213.091,29.039C212.904,28.811 212.64,28.696 212.301,28.696C212.147,28.696 211.999,28.726 211.86,28.785C211.72,28.845 211.594,28.932 211.481,29.049C211.367,29.164 211.274,29.305 211.199,29.472C211.125,29.638 211.076,29.829 211.053,30.043ZM212.417,32.665C212.126,32.665 211.854,32.613 211.601,32.509C211.349,32.405 211.128,32.256 210.942,32.063C210.754,31.87 210.607,31.634 210.499,31.354C210.393,31.074 210.339,30.756 210.339,30.4C210.339,30.043 210.394,29.723 210.504,29.441C210.614,29.158 210.76,28.919 210.942,28.723C211.122,28.527 211.329,28.377 211.561,28.272C211.793,28.169 212.033,28.116 212.283,28.116C212.557,28.116 212.802,28.164 213.019,28.259C213.237,28.354 213.417,28.491 213.564,28.669C213.709,28.848 213.82,29.062 213.898,29.311C213.975,29.561 214.014,29.841 214.014,30.15C214.014,30.227 214.012,30.303 214.009,30.377C214.006,30.451 213.999,30.515 213.987,30.569L211.062,30.569C211.091,31.033 211.236,31.4 211.494,31.671C211.753,31.941 212.09,32.076 212.506,32.076C212.714,32.076 212.906,32.045 213.081,31.983C213.257,31.92 213.425,31.839 213.585,31.738L213.844,32.219C213.654,32.338 213.443,32.442 213.211,32.531C212.979,32.62 212.714,32.665 212.417,32.665Z" style="fill-rule:nonzero;"/>
        <path d="M215.263,32.558L215.263,28.223L215.869,28.223L215.932,28.848L215.958,28.848C216.166,28.639 216.385,28.466 216.613,28.326C216.843,28.186 217.109,28.116 217.412,28.116C217.87,28.116 218.204,28.259 218.415,28.545C218.626,28.83 218.733,29.252 218.733,29.811L218.733,32.558L218.001,32.558L218.001,29.909C218.001,29.499 217.936,29.203 217.805,29.022C217.674,28.84 217.466,28.75 217.18,28.75C216.954,28.75 216.755,28.806 216.583,28.919C216.41,29.032 216.214,29.198 215.994,29.419L215.994,32.558L215.263,32.558Z" style="fill-rule:nonzero;"/>
        <path d="M221.407,32.665C221.098,32.665 220.804,32.608 220.525,32.495C220.244,32.383 220.001,32.24 219.793,32.067L220.158,31.577C220.349,31.732 220.543,31.856 220.742,31.951C220.942,32.047 221.172,32.094 221.434,32.094C221.719,32.094 221.934,32.029 222.076,31.898C222.219,31.767 222.29,31.607 222.29,31.416C222.29,31.303 222.26,31.205 222.201,31.122C222.142,31.039 222.066,30.966 221.974,30.904C221.881,30.841 221.776,30.786 221.656,30.739C221.538,30.691 221.419,30.643 221.3,30.596C221.146,30.542 220.991,30.481 220.836,30.413C220.682,30.344 220.543,30.261 220.422,30.163C220.3,30.065 220.2,29.95 220.123,29.82C220.045,29.689 220.007,29.531 220.007,29.347C220.007,29.175 220.041,29.012 220.11,28.861C220.178,28.709 220.276,28.579 220.404,28.468C220.531,28.359 220.688,28.272 220.872,28.21C221.056,28.148 221.265,28.116 221.496,28.116C221.77,28.116 222.021,28.164 222.25,28.259C222.479,28.354 222.677,28.47 222.843,28.607L222.495,29.071C222.347,28.958 222.192,28.865 222.031,28.794C221.871,28.723 221.695,28.687 221.505,28.687C221.232,28.687 221.031,28.75 220.904,28.874C220.776,28.999 220.711,29.145 220.711,29.311C220.711,29.413 220.738,29.5 220.792,29.574C220.845,29.649 220.916,29.714 221.006,29.771C221.095,29.827 221.197,29.878 221.314,29.923C221.43,29.967 221.55,30.013 221.675,30.061C221.829,30.12 221.986,30.182 222.143,30.248C222.3,30.313 222.442,30.395 222.567,30.493C222.692,30.591 222.794,30.712 222.874,30.854C222.954,30.997 222.994,31.17 222.994,31.372C222.994,31.55 222.96,31.717 222.892,31.871C222.823,32.026 222.723,32.162 222.589,32.281C222.455,32.401 222.288,32.494 222.089,32.562C221.89,32.631 221.662,32.665 221.407,32.665Z" style="fill-rule:nonzero;"/>
        <path d="M225.51,32.665C225.279,32.665 225.083,32.629 224.926,32.558C224.769,32.487 224.641,32.388 224.542,32.263C224.445,32.139 224.374,31.987 224.333,31.809C224.291,31.63 224.271,31.434 224.271,31.22L224.271,28.821L223.628,28.821L223.628,28.268L224.306,28.223L224.396,27.01L225.011,27.01L225.011,28.223L226.179,28.223L226.179,28.821L225.011,28.821L225.011,31.229C225.011,31.496 225.06,31.703 225.157,31.849C225.256,31.994 225.43,32.067 225.68,32.067C225.757,32.067 225.84,32.055 225.929,32.031C226.019,32.008 226.099,31.981 226.17,31.951L226.313,32.504C226.194,32.546 226.065,32.583 225.925,32.616C225.785,32.649 225.647,32.665 225.51,32.665Z" style="fill-rule:nonzero;"/>
        <path d="M67.286,43.29C66.9,43.29 66.545,43.222 66.221,43.085C65.897,42.948 65.618,42.75 65.387,42.491C65.155,42.234 64.974,41.915 64.843,41.537C64.712,41.16 64.647,40.734 64.647,40.258C64.647,39.788 64.713,39.365 64.847,38.991C64.981,38.616 65.167,38.299 65.405,38.037C65.643,37.776 65.926,37.574 66.256,37.435C66.586,37.295 66.945,37.226 67.331,37.226C67.533,37.226 67.719,37.246 67.889,37.288C68.058,37.329 68.212,37.385 68.353,37.452C68.492,37.522 68.616,37.599 68.727,37.685C68.837,37.771 68.934,37.859 69.017,37.947L68.607,38.43C68.458,38.275 68.285,38.144 68.089,38.037C67.893,37.93 67.646,37.876 67.349,37.876C67.052,37.876 66.784,37.932 66.546,38.041C66.309,38.152 66.107,38.309 65.94,38.514C65.774,38.719 65.644,38.968 65.552,39.259C65.459,39.55 65.413,39.877 65.413,40.239C65.413,40.609 65.456,40.94 65.543,41.235C65.629,41.529 65.754,41.78 65.917,41.988C66.081,42.197 66.283,42.357 66.524,42.47C66.765,42.582 67.042,42.639 67.358,42.639C67.566,42.639 67.764,42.608 67.951,42.545C68.138,42.483 68.291,42.399 68.41,42.291L68.41,40.766L67.17,40.766L67.17,40.151L69.088,40.151L69.088,42.613C68.898,42.809 68.648,42.971 68.339,43.098C68.03,43.226 67.679,43.29 67.286,43.29Z" style="fill-rule:nonzero;"/>
        <path d="M70.988,40.668L73.306,40.668C73.306,40.228 73.212,39.894 73.026,39.664C72.838,39.436 72.574,39.322 72.236,39.322C72.081,39.322 71.934,39.351 71.794,39.41C71.655,39.47 71.529,39.558 71.415,39.674C71.302,39.789 71.208,39.931 71.134,40.097C71.06,40.264 71.011,40.454 70.988,40.668ZM72.352,43.29C72.061,43.29 71.788,43.238 71.535,43.134C71.283,43.031 71.063,42.881 70.876,42.688C70.689,42.495 70.541,42.259 70.434,41.979C70.327,41.699 70.274,41.381 70.274,41.025C70.274,40.668 70.328,40.349 70.439,40.066C70.549,39.783 70.695,39.544 70.876,39.348C71.057,39.152 71.264,39.002 71.495,38.898C71.728,38.794 71.968,38.741 72.218,38.741C72.491,38.741 72.737,38.789 72.953,38.884C73.171,38.98 73.352,39.116 73.498,39.294C73.644,39.473 73.755,39.687 73.832,39.937C73.909,40.187 73.948,40.466 73.948,40.775C73.948,40.853 73.947,40.928 73.944,41.002C73.941,41.076 73.934,41.141 73.921,41.195L70.996,41.195C71.026,41.658 71.17,42.026 71.429,42.296C71.688,42.567 72.025,42.701 72.441,42.701C72.649,42.701 72.841,42.67 73.016,42.608C73.192,42.545 73.36,42.464 73.52,42.363L73.779,42.844C73.588,42.963 73.377,43.068 73.146,43.156C72.913,43.245 72.649,43.29 72.352,43.29Z" style="fill-rule:nonzero;"/>
        <path d="M75.197,43.183L75.197,38.849L75.804,38.849L75.866,39.633L75.893,39.633C76.041,39.36 76.222,39.143 76.433,38.983C76.644,38.822 76.874,38.741 77.124,38.741C77.296,38.741 77.45,38.772 77.587,38.83L77.445,39.473C77.373,39.449 77.308,39.432 77.248,39.419C77.189,39.407 77.114,39.402 77.026,39.402C76.841,39.402 76.65,39.476 76.45,39.624C76.251,39.774 76.077,40.031 75.929,40.401L75.929,43.183L75.197,43.183Z" style="fill-rule:nonzero;"/>
        <path d="M78.47,43.183L78.47,38.849L79.076,38.849L79.139,39.473L79.165,39.473C79.356,39.265 79.563,39.091 79.785,38.951C80.008,38.812 80.25,38.741 80.512,38.741C80.845,38.741 81.106,38.815 81.292,38.96C81.48,39.106 81.618,39.31 81.707,39.571C81.933,39.322 82.16,39.12 82.39,38.969C82.618,38.818 82.866,38.741 83.134,38.741C83.58,38.741 83.911,38.884 84.129,39.17C84.346,39.455 84.454,39.877 84.454,40.436L84.454,43.183L83.723,43.183L83.723,40.534C83.723,40.124 83.657,39.828 83.527,39.647C83.396,39.465 83.194,39.375 82.92,39.375C82.593,39.375 82.231,39.598 81.832,40.044L81.832,43.183L81.101,43.183L81.101,40.534C81.101,40.124 81.035,39.828 80.905,39.647C80.774,39.465 80.569,39.375 80.289,39.375C79.962,39.375 79.6,39.598 79.201,40.044L79.201,43.183L78.47,43.183Z" style="fill-rule:nonzero;"/>
        <path d="M87.255,42.701C87.463,42.701 87.659,42.653 87.844,42.554C88.028,42.456 88.224,42.312 88.432,42.121L88.432,40.918C88.07,40.965 87.765,41.022 87.518,41.087C87.272,41.153 87.072,41.23 86.92,41.32C86.769,41.408 86.658,41.511 86.591,41.627C86.522,41.742 86.488,41.869 86.488,42.006C86.488,42.255 86.563,42.434 86.711,42.541C86.86,42.648 87.041,42.701 87.255,42.701ZM87.041,43.29C86.678,43.29 86.376,43.183 86.136,42.969C85.895,42.755 85.775,42.451 85.775,42.06C85.775,41.583 85.986,41.22 86.407,40.967C86.83,40.714 87.505,40.537 88.432,40.436C88.432,40.299 88.419,40.165 88.392,40.034C88.365,39.905 88.32,39.788 88.254,39.687C88.189,39.586 88.098,39.504 87.982,39.442C87.866,39.379 87.719,39.348 87.54,39.348C87.29,39.348 87.056,39.396 86.836,39.49C86.615,39.586 86.419,39.693 86.247,39.812L85.962,39.304C86.164,39.173 86.41,39.046 86.702,38.924C86.993,38.803 87.315,38.741 87.665,38.741C88.195,38.741 88.578,38.904 88.816,39.228C89.054,39.552 89.172,39.985 89.172,40.526L89.172,43.183L88.566,43.183L88.504,42.666L88.477,42.666C88.269,42.838 88.046,42.986 87.808,43.108C87.571,43.229 87.315,43.29 87.041,43.29Z" style="fill-rule:nonzero;"/>
        <path d="M90.716,43.183L90.716,38.849L91.322,38.849L91.385,39.473L91.411,39.473C91.619,39.265 91.838,39.091 92.067,38.951C92.296,38.812 92.562,38.741 92.865,38.741C93.323,38.741 93.657,38.884 93.868,39.17C94.079,39.455 94.186,39.877 94.186,40.436L94.186,43.183L93.454,43.183L93.454,40.534C93.454,40.124 93.389,39.828 93.258,39.647C93.127,39.465 92.919,39.375 92.633,39.375C92.407,39.375 92.208,39.432 92.036,39.544C91.863,39.657 91.667,39.823 91.447,40.044L91.447,43.183L90.716,43.183Z" style="fill-rule:nonzero;"/>
        <path d="M98.814,39.91L98.537,40.802L100.295,40.802L100.018,39.91C99.91,39.583 99.81,39.257 99.714,38.934C99.619,38.61 99.524,38.278 99.429,37.939L99.394,37.939C99.304,38.278 99.212,38.61 99.116,38.934C99.022,39.257 98.921,39.583 98.814,39.91ZM97.03,43.183L99.01,37.332L99.848,37.332L101.829,43.183L101.035,43.183L100.482,41.4L98.35,41.4L97.788,43.183L97.03,43.183Z" style="fill-rule:nonzero;"/>
        <path d="M104.477,43.29C104.192,43.29 103.924,43.239 103.674,43.139C103.425,43.037 103.21,42.89 103.028,42.697C102.847,42.504 102.704,42.266 102.6,41.984C102.496,41.701 102.444,41.381 102.444,41.025C102.444,40.662 102.501,40.339 102.614,40.057C102.726,39.775 102.878,39.535 103.068,39.339C103.258,39.143 103.48,38.994 103.733,38.893C103.985,38.792 104.252,38.741 104.531,38.741C104.816,38.741 105.06,38.792 105.262,38.893C105.465,38.994 105.643,39.114 105.798,39.25L105.423,39.732C105.299,39.618 105.166,39.527 105.026,39.455C104.886,39.384 104.73,39.348 104.558,39.348C104.362,39.348 104.18,39.388 104.013,39.468C103.847,39.549 103.705,39.663 103.586,39.812C103.466,39.96 103.373,40.137 103.304,40.342C103.236,40.548 103.202,40.775 103.202,41.025C103.202,41.275 103.235,41.5 103.3,41.702C103.366,41.905 103.457,42.078 103.572,42.224C103.688,42.37 103.83,42.483 103.996,42.564C104.163,42.644 104.343,42.684 104.54,42.684C104.742,42.684 104.928,42.641 105.097,42.554C105.267,42.468 105.42,42.365 105.556,42.246L105.878,42.738C105.681,42.909 105.465,43.045 105.227,43.143C104.989,43.241 104.739,43.29 104.477,43.29Z" style="fill-rule:nonzero;"/>
        <path d="M108.134,42.701C108.342,42.701 108.539,42.653 108.723,42.554C108.907,42.456 109.103,42.312 109.311,42.121L109.311,40.918C108.949,40.965 108.644,41.022 108.397,41.087C108.151,41.153 107.952,41.23 107.799,41.32C107.648,41.408 107.538,41.511 107.47,41.627C107.401,41.742 107.368,41.869 107.368,42.006C107.368,42.255 107.442,42.434 107.591,42.541C107.739,42.648 107.921,42.701 108.134,42.701ZM107.921,43.29C107.557,43.29 107.256,43.183 107.015,42.969C106.774,42.755 106.654,42.451 106.654,42.06C106.654,41.583 106.865,41.22 107.287,40.967C107.71,40.714 108.384,40.537 109.311,40.436C109.311,40.299 109.299,40.165 109.271,40.034C109.245,39.905 109.199,39.788 109.133,39.687C109.068,39.586 108.977,39.504 108.861,39.442C108.746,39.379 108.598,39.348 108.42,39.348C108.17,39.348 107.935,39.396 107.716,39.49C107.495,39.586 107.299,39.693 107.127,39.812L106.841,39.304C107.044,39.173 107.29,39.046 107.582,38.924C107.873,38.803 108.194,38.741 108.545,38.741C109.074,38.741 109.458,38.904 109.695,39.228C109.933,39.552 110.051,39.985 110.051,40.526L110.051,43.183L109.445,43.183L109.383,42.666L109.356,42.666C109.148,42.838 108.925,42.986 108.687,43.108C108.45,43.229 108.194,43.29 107.921,43.29Z" style="fill-rule:nonzero;"/>
        <path d="M113.235,42.675C113.437,42.675 113.628,42.625 113.806,42.528C113.984,42.43 114.163,42.28 114.341,42.077L114.341,39.812C114.157,39.646 113.98,39.528 113.81,39.459C113.641,39.391 113.467,39.357 113.289,39.357C113.116,39.357 112.955,39.397 112.802,39.478C112.651,39.558 112.519,39.671 112.406,39.817C112.293,39.962 112.204,40.136 112.138,40.338C112.073,40.54 112.041,40.766 112.041,41.016C112.041,41.539 112.144,41.947 112.352,42.238C112.56,42.53 112.855,42.675 113.235,42.675ZM113.075,43.29C112.528,43.29 112.092,43.094 111.768,42.701C111.444,42.309 111.282,41.75 111.282,41.025C111.282,40.674 111.334,40.358 111.438,40.074C111.543,39.792 111.68,39.553 111.853,39.357C112.025,39.16 112.224,39.009 112.451,38.903C112.676,38.795 112.915,38.741 113.164,38.741C113.414,38.741 113.631,38.786 113.815,38.875C114,38.964 114.186,39.086 114.377,39.241L114.341,38.501L114.341,36.833L115.082,36.833L115.082,43.183L114.475,43.183L114.413,42.675L114.385,42.675C114.214,42.841 114.015,42.986 113.793,43.108C113.57,43.229 113.331,43.29 113.075,43.29Z" style="fill-rule:nonzero;"/>
        <path d="M117.115,40.668L119.433,40.668C119.433,40.228 119.34,39.894 119.153,39.664C118.966,39.436 118.702,39.322 118.363,39.322C118.209,39.322 118.061,39.351 117.922,39.41C117.782,39.47 117.656,39.558 117.543,39.674C117.429,39.789 117.336,39.931 117.261,40.097C117.187,40.264 117.138,40.454 117.115,40.668ZM118.479,43.29C118.188,43.29 117.916,43.238 117.663,43.134C117.411,43.031 117.19,42.881 117.004,42.688C116.816,42.495 116.669,42.259 116.561,41.979C116.455,41.699 116.401,41.381 116.401,41.025C116.401,40.668 116.456,40.349 116.566,40.066C116.676,39.783 116.822,39.544 117.004,39.348C117.184,39.152 117.391,39.002 117.623,38.898C117.855,38.794 118.095,38.741 118.345,38.741C118.619,38.741 118.864,38.789 119.081,38.884C119.299,38.98 119.479,39.116 119.626,39.294C119.771,39.473 119.882,39.687 119.96,39.937C120.037,40.187 120.076,40.466 120.076,40.775C120.076,40.853 120.074,40.928 120.071,41.002C120.068,41.076 120.061,41.141 120.049,41.195L117.124,41.195C117.153,41.658 117.298,42.026 117.556,42.296C117.815,42.567 118.152,42.701 118.568,42.701C118.776,42.701 118.968,42.67 119.143,42.608C119.319,42.545 119.487,42.464 119.647,42.363L119.906,42.844C119.716,42.963 119.505,43.068 119.273,43.156C119.041,43.245 118.776,43.29 118.479,43.29Z" style="fill-rule:nonzero;"/>
        <path d="M121.325,43.183L121.325,38.849L121.931,38.849L121.993,39.473L122.02,39.473C122.21,39.265 122.417,39.091 122.64,38.951C122.862,38.812 123.105,38.741 123.366,38.741C123.699,38.741 123.96,38.815 124.147,38.96C124.334,39.106 124.473,39.31 124.562,39.571C124.787,39.322 125.015,39.12 125.244,38.969C125.473,38.818 125.721,38.741 125.988,38.741C126.435,38.741 126.766,38.884 126.984,39.17C127.2,39.455 127.309,39.877 127.309,40.436L127.309,43.183L126.577,43.183L126.577,40.534C126.577,40.124 126.512,39.828 126.381,39.647C126.25,39.465 126.048,39.375 125.775,39.375C125.447,39.375 125.085,39.598 124.687,40.044L124.687,43.183L123.955,43.183L123.955,40.534C123.955,40.124 123.89,39.828 123.759,39.647C123.628,39.465 123.423,39.375 123.144,39.375C122.817,39.375 122.454,39.598 122.056,40.044L122.056,43.183L121.325,43.183Z" style="fill-rule:nonzero;"/>
        <path d="M128.896,43.183L128.896,38.849L129.627,38.849L129.627,43.183L128.896,43.183ZM129.27,37.956C129.127,37.956 129.007,37.912 128.909,37.822C128.811,37.734 128.761,37.621 128.761,37.484C128.761,37.341 128.811,37.227 128.909,37.141C129.007,37.055 129.127,37.011 129.27,37.011C129.412,37.011 129.533,37.055 129.631,37.141C129.729,37.227 129.778,37.341 129.778,37.484C129.778,37.621 129.729,37.734 129.631,37.822C129.533,37.912 129.412,37.956 129.27,37.956Z" style="fill-rule:nonzero;"/>
        <path d="M132.981,43.29C132.695,43.29 132.428,43.239 132.178,43.139C131.929,43.037 131.713,42.89 131.531,42.697C131.351,42.504 131.207,42.266 131.104,41.984C130.998,41.701 130.947,41.381 130.947,41.025C130.947,40.662 131.004,40.339 131.117,40.057C131.23,39.775 131.381,39.535 131.571,39.339C131.762,39.143 131.984,38.994 132.236,38.893C132.488,38.792 132.755,38.741 133.034,38.741C133.32,38.741 133.564,38.792 133.766,38.893C133.968,38.994 134.147,39.114 134.301,39.25L133.926,39.732C133.802,39.618 133.669,39.527 133.529,39.455C133.39,39.384 133.234,39.348 133.062,39.348C132.865,39.348 132.684,39.388 132.517,39.468C132.351,39.549 132.208,39.663 132.089,39.812C131.97,39.96 131.876,40.137 131.808,40.342C131.739,40.548 131.705,40.775 131.705,41.025C131.705,41.275 131.738,41.5 131.804,41.702C131.869,41.905 131.96,42.078 132.075,42.224C132.192,42.37 132.333,42.483 132.499,42.564C132.666,42.644 132.847,42.684 133.043,42.684C133.245,42.684 133.432,42.641 133.601,42.554C133.771,42.468 133.923,42.365 134.06,42.246L134.381,42.738C134.185,42.909 133.968,43.045 133.731,43.143C133.492,43.241 133.242,43.29 132.981,43.29Z" style="fill-rule:nonzero;"/>
        <path d="M137.547,43.183L137.547,37.332L140.918,37.332L140.918,37.956L138.287,37.956L138.287,39.794L140.508,39.794L140.508,40.427L138.287,40.427L138.287,42.55L141.007,42.55L141.007,43.183L137.547,43.183Z" style="fill-rule:nonzero;"/>
        <path d="M141.738,43.183L143.156,40.918L141.845,38.849L142.639,38.849L143.219,39.803C143.284,39.922 143.353,40.042 143.424,40.164C143.495,40.286 143.57,40.406 143.647,40.526L143.683,40.526C143.748,40.406 143.814,40.286 143.879,40.164C143.945,40.042 144.01,39.922 144.075,39.803L144.601,38.849L145.368,38.849L144.057,40.998L145.466,43.183L144.673,43.183L144.039,42.175C143.962,42.044 143.885,41.913 143.808,41.782C143.73,41.653 143.65,41.525 143.567,41.4L143.531,41.4C143.453,41.525 143.379,41.651 143.308,41.779C143.237,41.906 143.165,42.038 143.094,42.175L142.505,43.183L141.738,43.183Z" style="fill-rule:nonzero;"/>
        <path d="M148.062,43.29C147.777,43.29 147.509,43.239 147.259,43.139C147.01,43.037 146.794,42.89 146.612,42.697C146.432,42.504 146.288,42.266 146.185,41.984C146.08,41.701 146.029,41.381 146.029,41.025C146.029,40.662 146.085,40.339 146.198,40.057C146.311,39.775 146.462,39.535 146.653,39.339C146.843,39.143 147.065,38.994 147.318,38.893C147.57,38.792 147.836,38.741 148.115,38.741C148.401,38.741 148.645,38.792 148.847,38.893C149.049,38.994 149.228,39.114 149.382,39.25L149.007,39.732C148.883,39.618 148.75,39.527 148.611,39.455C148.471,39.384 148.315,39.348 148.143,39.348C147.946,39.348 147.765,39.388 147.598,39.468C147.432,39.549 147.289,39.663 147.17,39.812C147.051,39.96 146.957,40.137 146.889,40.342C146.82,40.548 146.786,40.775 146.786,41.025C146.786,41.275 146.82,41.5 146.885,41.702C146.95,41.905 147.041,42.078 147.156,42.224C147.273,42.37 147.414,42.483 147.58,42.564C147.747,42.644 147.928,42.684 148.124,42.684C148.326,42.684 148.513,42.641 148.682,42.554C148.852,42.468 149.004,42.365 149.141,42.246L149.462,42.738C149.266,42.909 149.049,43.045 148.812,43.143C148.573,43.241 148.323,43.29 148.062,43.29Z" style="fill-rule:nonzero;"/>
        <path d="M150.55,43.183L150.55,36.833L151.281,36.833L151.281,38.563L151.254,39.455C151.462,39.259 151.68,39.091 151.905,38.951C152.131,38.812 152.396,38.741 152.699,38.741C153.157,38.741 153.491,38.884 153.702,39.17C153.913,39.455 154.02,39.877 154.02,40.436L154.02,43.183L153.288,43.183L153.288,40.534C153.288,40.124 153.223,39.828 153.092,39.647C152.961,39.465 152.753,39.375 152.467,39.375C152.241,39.375 152.042,39.432 151.87,39.544C151.697,39.657 151.501,39.823 151.281,40.044L151.281,43.183L150.55,43.183Z" style="fill-rule:nonzero;"/>
        <path d="M156.793,42.701C157.001,42.701 157.197,42.653 157.382,42.554C157.566,42.456 157.762,42.312 157.97,42.121L157.97,40.918C157.608,40.965 157.303,41.022 157.056,41.087C156.81,41.153 156.611,41.23 156.458,41.32C156.307,41.408 156.196,41.511 156.129,41.627C156.06,41.742 156.027,41.869 156.027,42.006C156.027,42.255 156.101,42.434 156.249,42.541C156.398,42.648 156.579,42.701 156.793,42.701ZM156.579,43.29C156.216,43.29 155.914,43.183 155.674,42.969C155.433,42.755 155.313,42.451 155.313,42.06C155.313,41.583 155.524,41.22 155.945,40.967C156.368,40.714 157.043,40.537 157.97,40.436C157.97,40.299 157.957,40.165 157.93,40.034C157.904,39.905 157.858,39.788 157.792,39.687C157.727,39.586 157.636,39.504 157.52,39.442C157.404,39.379 157.257,39.348 157.078,39.348C156.828,39.348 156.594,39.396 156.374,39.49C156.154,39.586 155.957,39.693 155.785,39.812L155.5,39.304C155.702,39.173 155.948,39.046 156.24,38.924C156.531,38.803 156.853,38.741 157.203,38.741C157.733,38.741 158.116,38.904 158.354,39.228C158.592,39.552 158.71,39.985 158.71,40.526L158.71,43.183L158.104,43.183L158.042,42.666L158.015,42.666C157.807,42.838 157.584,42.986 157.346,43.108C157.109,43.229 156.853,43.29 156.579,43.29Z" style="fill-rule:nonzero;"/>
        <path d="M160.254,43.183L160.254,38.849L160.861,38.849L160.923,39.473L160.949,39.473C161.157,39.265 161.376,39.091 161.605,38.951C161.834,38.812 162.1,38.741 162.404,38.741C162.862,38.741 163.195,38.884 163.406,39.17C163.617,39.455 163.724,39.877 163.724,40.436L163.724,43.183L162.992,43.183L162.992,40.534C162.992,40.124 162.927,39.828 162.796,39.647C162.665,39.465 162.457,39.375 162.171,39.375C161.945,39.375 161.746,39.432 161.574,39.544C161.402,39.657 161.205,39.823 160.986,40.044L160.986,43.183L160.254,43.183Z" style="fill-rule:nonzero;"/>
        <path d="M166.774,41.32C166.899,41.32 167.016,41.295 167.125,41.247C167.236,41.2 167.333,41.132 167.42,41.042C167.506,40.953 167.572,40.845 167.62,40.717C167.668,40.589 167.692,40.445 167.692,40.284C167.692,39.963 167.603,39.715 167.424,39.54C167.246,39.364 167.029,39.277 166.774,39.277C166.518,39.277 166.301,39.364 166.122,39.54C165.944,39.715 165.855,39.963 165.855,40.284C165.855,40.445 165.878,40.589 165.926,40.717C165.974,40.845 166.04,40.953 166.127,41.042C166.213,41.132 166.311,41.2 166.421,41.247C166.53,41.295 166.649,41.32 166.774,41.32ZM166.88,44.672C167.088,44.672 167.278,44.647 167.446,44.597C167.616,44.546 167.76,44.481 167.879,44.401C167.998,44.321 168.09,44.227 168.155,44.119C168.221,44.013 168.254,43.903 168.254,43.789C168.254,43.587 168.179,43.447 168.03,43.37C167.882,43.293 167.665,43.254 167.38,43.254L166.631,43.254C166.547,43.254 166.456,43.25 166.359,43.241C166.261,43.232 166.163,43.213 166.069,43.183C165.914,43.296 165.801,43.415 165.73,43.54C165.658,43.664 165.623,43.789 165.623,43.914C165.623,44.147 165.735,44.33 165.957,44.467C166.18,44.604 166.487,44.672 166.88,44.672ZM166.774,45.181C166.506,45.181 166.262,45.156 166.042,45.105C165.821,45.055 165.633,44.979 165.476,44.877C165.318,44.777 165.196,44.655 165.11,44.512C165.024,44.369 164.981,44.202 164.981,44.013C164.981,43.828 165.037,43.653 165.15,43.487C165.263,43.32 165.417,43.168 165.613,43.031L165.613,42.995C165.507,42.931 165.416,42.84 165.342,42.724C165.268,42.608 165.231,42.464 165.231,42.291C165.231,42.107 165.28,41.947 165.382,41.81C165.483,41.673 165.59,41.566 165.703,41.489L165.703,41.452C165.561,41.334 165.431,41.175 165.315,40.976C165.199,40.777 165.141,40.546 165.141,40.284C165.141,40.047 165.184,39.832 165.271,39.643C165.357,39.452 165.474,39.29 165.623,39.156C165.772,39.023 165.945,38.92 166.145,38.849C166.344,38.778 166.553,38.741 166.774,38.741C166.892,38.741 167.004,38.752 167.108,38.773C167.212,38.794 167.305,38.819 167.389,38.849L168.896,38.849L168.896,39.41L168.004,39.41C168.105,39.512 168.19,39.64 168.258,39.794C168.326,39.948 168.361,40.118 168.361,40.302C168.361,40.534 168.32,40.743 168.236,40.931C168.153,41.118 168.04,41.276 167.897,41.404C167.754,41.531 167.586,41.631 167.393,41.702C167.199,41.774 166.993,41.81 166.774,41.81C166.666,41.81 166.556,41.796 166.444,41.77C166.33,41.742 166.223,41.705 166.122,41.658C166.045,41.724 165.98,41.796 165.926,41.876C165.872,41.956 165.846,42.057 165.846,42.175C165.846,42.312 165.9,42.425 166.006,42.514C166.113,42.604 166.316,42.648 166.612,42.648L167.451,42.648C167.956,42.648 168.335,42.73 168.588,42.893C168.841,43.057 168.967,43.32 168.967,43.683C168.967,43.885 168.917,44.076 168.816,44.258C168.714,44.439 168.569,44.598 168.379,44.735C168.189,44.871 167.958,44.98 167.688,45.061C167.417,45.141 167.112,45.181 166.774,45.181Z" style="fill-rule:nonzero;"/>
        <path d="M170.341,40.668L172.659,40.668C172.659,40.228 172.566,39.894 172.379,39.664C172.192,39.436 171.928,39.322 171.589,39.322C171.435,39.322 171.287,39.351 171.148,39.41C171.008,39.47 170.882,39.558 170.769,39.674C170.655,39.789 170.562,39.931 170.487,40.097C170.413,40.264 170.364,40.454 170.341,40.668ZM171.705,43.29C171.414,43.29 171.142,43.238 170.889,43.134C170.637,43.031 170.416,42.881 170.23,42.688C170.042,42.495 169.895,42.259 169.787,41.979C169.681,41.699 169.627,41.381 169.627,41.025C169.627,40.668 169.682,40.349 169.792,40.066C169.903,39.783 170.048,39.544 170.23,39.348C170.41,39.152 170.617,39.002 170.849,38.898C171.081,38.794 171.321,38.741 171.571,38.741C171.845,38.741 172.09,38.789 172.307,38.884C172.525,38.98 172.705,39.116 172.852,39.294C172.997,39.473 173.109,39.687 173.186,39.937C173.263,40.187 173.302,40.466 173.302,40.775C173.302,40.853 173.3,40.928 173.297,41.002C173.294,41.076 173.287,41.141 173.275,41.195L170.35,41.195C170.379,41.658 170.524,42.026 170.782,42.296C171.041,42.567 171.378,42.701 171.794,42.701C172.002,42.701 172.195,42.67 172.369,42.608C172.545,42.545 172.713,42.464 172.873,42.363L173.132,42.844C172.942,42.963 172.731,43.068 172.499,43.156C172.267,43.245 172.002,43.29 171.705,43.29Z" style="fill-rule:nonzero;"/>
        <path d="M178.296,43.29C177.886,43.29 177.505,43.213 177.154,43.058C176.804,42.904 176.5,42.693 176.245,42.425L176.691,41.907C176.899,42.128 177.144,42.305 177.427,42.439C177.709,42.572 178.002,42.639 178.305,42.639C178.692,42.639 178.991,42.551 179.206,42.376C179.42,42.2 179.527,41.97 179.527,41.685C179.527,41.536 179.501,41.409 179.451,41.306C179.401,41.201 179.332,41.113 179.246,41.038C179.159,40.964 179.057,40.897 178.939,40.837C178.82,40.779 178.692,40.716 178.555,40.651L177.716,40.284C177.579,40.225 177.44,40.154 177.297,40.071C177.154,39.988 177.027,39.886 176.914,39.767C176.801,39.649 176.708,39.507 176.637,39.344C176.566,39.18 176.53,38.991 176.53,38.778C176.53,38.557 176.576,38.352 176.668,38.162C176.761,37.972 176.889,37.807 177.052,37.667C177.215,37.528 177.408,37.419 177.632,37.341C177.855,37.264 178.1,37.226 178.367,37.226C178.718,37.226 179.042,37.292 179.34,37.426C179.637,37.56 179.89,37.734 180.098,37.947L179.696,38.43C179.518,38.257 179.32,38.121 179.104,38.024C178.886,37.926 178.641,37.876 178.367,37.876C178.04,37.876 177.778,37.952 177.578,38.104C177.379,38.255 177.279,38.465 177.279,38.733C177.279,38.875 177.308,38.995 177.364,39.094C177.421,39.192 177.496,39.279 177.592,39.353C177.687,39.427 177.791,39.492 177.904,39.549C178.017,39.606 178.133,39.657 178.251,39.704L179.081,40.062C179.247,40.133 179.405,40.215 179.554,40.307C179.702,40.399 179.83,40.506 179.938,40.628C180.044,40.75 180.129,40.893 180.192,41.056C180.254,41.22 180.285,41.408 180.285,41.622C180.285,41.854 180.238,42.072 180.147,42.274C180.055,42.476 179.922,42.653 179.75,42.804C179.577,42.955 179.369,43.074 179.125,43.16C178.882,43.247 178.606,43.29 178.296,43.29Z" style="fill-rule:nonzero;"/>
        <path d="M181.891,40.668L184.209,40.668C184.209,40.228 184.115,39.894 183.929,39.664C183.741,39.436 183.478,39.322 183.139,39.322C182.985,39.322 182.837,39.351 182.697,39.41C182.558,39.47 182.432,39.558 182.319,39.674C182.205,39.789 182.112,39.931 182.037,40.097C181.963,40.264 181.914,40.454 181.891,40.668ZM183.255,43.29C182.964,43.29 182.692,43.238 182.439,43.134C182.187,43.031 181.966,42.881 181.779,42.688C181.592,42.495 181.445,42.259 181.337,41.979C181.231,41.699 181.177,41.381 181.177,41.025C181.177,40.668 181.232,40.349 181.342,40.066C181.452,39.783 181.598,39.544 181.779,39.348C181.96,39.152 182.167,39.002 182.399,38.898C182.631,38.794 182.871,38.741 183.121,38.741C183.395,38.741 183.64,38.789 183.857,38.884C184.074,38.98 184.255,39.116 184.402,39.294C184.547,39.473 184.658,39.687 184.736,39.937C184.813,40.187 184.852,40.466 184.852,40.775C184.852,40.853 184.85,40.928 184.847,41.002C184.844,41.076 184.837,41.141 184.824,41.195L181.9,41.195C181.929,41.658 182.073,42.026 182.332,42.296C182.591,42.567 182.928,42.701 183.344,42.701C183.552,42.701 183.744,42.67 183.919,42.608C184.095,42.545 184.263,42.464 184.423,42.363L184.682,42.844C184.491,42.963 184.28,43.068 184.049,43.156C183.817,43.245 183.552,43.29 183.255,43.29Z" style="fill-rule:nonzero;"/>
        <path d="M186.1,43.183L186.1,38.849L186.706,38.849L186.769,39.633L186.795,39.633C186.944,39.36 187.124,39.143 187.335,38.983C187.546,38.822 187.777,38.741 188.027,38.741C188.198,38.741 188.353,38.772 188.489,38.83L188.347,39.473C188.276,39.449 188.21,39.432 188.151,39.419C188.091,39.407 188.017,39.402 187.928,39.402C187.743,39.402 187.552,39.476 187.353,39.624C187.154,39.774 186.98,40.031 186.831,40.401L186.831,43.183L186.1,43.183Z" style="fill-rule:nonzero;"/>
        <path d="M190.532,43.183L188.972,38.849L189.73,38.849L190.55,41.31C190.615,41.525 190.683,41.739 190.751,41.952C190.819,42.166 190.886,42.377 190.951,42.585L190.987,42.585C191.053,42.377 191.117,42.166 191.184,41.952C191.248,41.739 191.314,41.525 191.379,41.31L192.2,38.849L192.922,38.849L191.389,43.183L190.532,43.183Z" style="fill-rule:nonzero;"/>
        <path d="M193.939,43.183L193.939,38.849L194.67,38.849L194.67,43.183L193.939,43.183ZM194.313,37.956C194.17,37.956 194.05,37.912 193.952,37.822C193.854,37.734 193.805,37.621 193.805,37.484C193.805,37.341 193.854,37.227 193.952,37.141C194.05,37.055 194.17,37.011 194.313,37.011C194.456,37.011 194.576,37.055 194.674,37.141C194.773,37.227 194.821,37.341 194.821,37.484C194.821,37.621 194.773,37.734 194.674,37.822C194.576,37.912 194.456,37.956 194.313,37.956Z" style="fill-rule:nonzero;"/>
        <path d="M198.023,43.29C197.737,43.29 197.47,43.239 197.22,43.139C196.971,43.037 196.755,42.89 196.573,42.697C196.393,42.504 196.249,42.266 196.146,41.984C196.041,41.701 195.989,41.381 195.989,41.025C195.989,40.662 196.046,40.339 196.159,40.057C196.272,39.775 196.423,39.535 196.613,39.339C196.804,39.143 197.026,38.994 197.279,38.893C197.53,38.792 197.797,38.741 198.076,38.741C198.362,38.741 198.606,38.792 198.808,38.893C199.01,38.994 199.189,39.114 199.343,39.25L198.968,39.732C198.844,39.618 198.711,39.527 198.571,39.455C198.432,39.384 198.276,39.348 198.104,39.348C197.907,39.348 197.726,39.388 197.559,39.468C197.393,39.549 197.25,39.663 197.131,39.812C197.012,39.96 196.918,40.137 196.85,40.342C196.781,40.548 196.747,40.775 196.747,41.025C196.747,41.275 196.78,41.5 196.846,41.702C196.911,41.905 197.002,42.078 197.117,42.224C197.234,42.37 197.375,42.483 197.541,42.564C197.708,42.644 197.889,42.684 198.085,42.684C198.287,42.684 198.474,42.641 198.643,42.554C198.813,42.468 198.965,42.365 199.102,42.246L199.423,42.738C199.227,42.909 199.01,43.045 198.773,43.143C198.534,43.241 198.284,43.29 198.023,43.29Z" style="fill-rule:nonzero;"/>
        <path d="M200.806,40.668L203.124,40.668C203.124,40.228 203.03,39.894 202.844,39.664C202.656,39.436 202.393,39.322 202.054,39.322C201.9,39.322 201.752,39.351 201.612,39.41C201.473,39.47 201.347,39.558 201.234,39.674C201.12,39.789 201.027,39.931 200.952,40.097C200.878,40.264 200.829,40.454 200.806,40.668ZM202.17,43.29C201.879,43.29 201.607,43.238 201.354,43.134C201.102,43.031 200.881,42.881 200.695,42.688C200.507,42.495 200.36,42.259 200.252,41.979C200.146,41.699 200.092,41.381 200.092,41.025C200.092,40.668 200.147,40.349 200.257,40.066C200.367,39.783 200.513,39.544 200.695,39.348C200.875,39.152 201.082,39.002 201.314,38.898C201.546,38.794 201.786,38.741 202.036,38.741C202.31,38.741 202.555,38.789 202.772,38.884C202.989,38.98 203.17,39.116 203.317,39.294C203.462,39.473 203.573,39.687 203.651,39.937C203.728,40.187 203.767,40.466 203.767,40.775C203.767,40.853 203.765,40.928 203.762,41.002C203.759,41.076 203.752,41.141 203.739,41.195L200.815,41.195C200.844,41.658 200.988,42.026 201.247,42.296C201.506,42.567 201.843,42.701 202.259,42.701C202.467,42.701 202.659,42.67 202.834,42.608C203.01,42.545 203.178,42.464 203.338,42.363L203.597,42.844C203.406,42.963 203.195,43.068 202.964,43.156C202.732,43.245 202.467,43.29 202.17,43.29Z" style="fill-rule:nonzero;"/>
    </g>
</svg>
